<?xml version="1.0" standalone="no"?><!DOCTYPE svg PUBLIC "-//W3C//DTD SVG 1.1//EN" "http://www.w3.org/Graphics/SVG/1.1/DTD/svg11.dtd"><svg t="1757315497105" class="icon" viewBox="0 0 1024 1024" version="1.1" xmlns="http://www.w3.org/2000/svg" p-id="2685" width="28" height="28" xmlns:xlink="http://www.w3.org/1999/xlink"><path d="M1015.466667 921.6c0 56.554667-45.845333 102.4-102.4 102.4H110.933333c-56.554667 0-102.4-45.845333-102.4-102.4V102.4C8.533333 45.845333 54.378667 0 110.933333 0h802.133334c56.554667 0 102.4 45.845333 102.4 102.4v819.2z" fill="#FFD133" p-id="2686"></path><path d="M172.258133 262.272h116.616534c25.399467 0 44.420267 6.0416 57.066666 18.120533 12.6464 12.0832 18.9696 29.269333 18.9696 51.5712 0 22.920533-6.890667 40.832-20.676266 53.738667s-34.820267 19.357867-63.108267 19.357867h-38.408533v84.2496H172.258133V262.272z m70.464 96.7936h17.1904c13.521067 0 23.022933-2.346667 28.497067-7.048533 5.469867-4.6976 8.2048-10.709333 8.2048-18.043734 0-7.121067-2.376533-13.162667-7.121067-18.120533-4.7488-4.957867-13.6832-7.4368-26.7904-7.4368h-19.9808v50.6496zM401.928533 262.272h70.1568v79.445333h76.6592V262.272h70.468267v227.037867h-70.468267V397.469867h-76.6592v91.835733H401.928533V262.272zM665.514667 262.272h116.616533c25.3952 0 44.420267 6.0416 57.066667 18.120533 12.6464 12.0832 18.9696 29.269333 18.9696 51.5712 0 22.920533-6.8864 40.832-20.672 53.738667s-34.824533 19.357867-63.112534 19.357867h-38.404266v84.2496H665.514667V262.272z m70.468266 96.7936h17.186134c13.525333 0 23.022933-2.346667 28.497066-7.048533 5.469867-4.6976 8.209067-10.709333 8.209067-18.043734 0-7.121067-2.376533-13.162667-7.125333-18.120533s-13.678933-7.4368-26.7904-7.4368h-19.976534v50.6496z" fill="#333333" p-id="2687"></path><path d="M189.504 821.512533V688.896h58.798933c11.822933 0 20.804267 1.1904 26.9568 3.575467 6.148267 2.385067 11.063467 6.587733 14.7456 12.6208 3.677867 6.0288 5.5168 12.6976 5.5168 19.9936 0 9.408-3.0464 17.335467-9.134933 23.786666-6.0928 6.455467-15.5008 10.555733-28.224 12.305067 4.642133 2.231467 8.170667 4.433067 10.5856 6.6048 5.124267 4.706133 9.979733 10.581333 14.562133 17.642667l23.069867 36.091733h-22.071467l-17.5488-27.592533c-5.128533-7.957333-9.348267-14.050133-12.663466-18.269867s-6.2848-7.176533-8.9088-8.866133a26.368 26.368 0 0 0-8.004267-3.528534c-1.992533-0.4224-5.248-0.631467-9.770667-0.631466h-20.356266v58.8928h-17.553067z m17.5488-74.0864h37.7216c8.017067 0 14.293333-0.827733 18.816-2.487466 4.522667-1.659733 7.9616-4.3136 10.312533-7.957334a21.533867 21.533867 0 0 0 3.528534-11.895466c0-6.276267-2.2784-11.4304-6.830934-15.470934-4.552533-4.036267-11.746133-6.058667-21.576533-6.058666h-41.975467v43.869866zM383.906133 821.512533v-14.114133c-7.479467 10.8544-17.6384 16.2816-30.485333 16.2816-5.6704 0-10.961067-1.083733-15.876267-3.259733-4.9152-2.171733-8.5632-4.893867-10.944-8.183467-2.385067-3.2896-4.0576-7.313067-5.021866-12.078933-0.6656-3.195733-0.994133-8.260267-0.994134-15.197867v-59.524267h16.2816v53.282134c0 8.503467 0.3328 14.2336 0.994134 17.186133 1.024 4.283733 3.195733 7.6416 6.510933 10.0864 3.3152 2.440533 7.415467 3.6608 12.3008 3.6608s9.467733-1.250133 13.751467-3.754667c4.279467-2.500267 7.313067-5.909333 9.092266-10.222933 1.7792-4.3136 2.666667-10.5728 2.666667-18.769067v-51.473066h16.2816v96.072533h-14.557867zM423.978667 821.512533v-96.072533h14.656v13.661867c7.057067-10.555733 17.245867-15.8336 30.574933-15.8336 5.789867 0 11.1104 1.041067 15.965867 3.118933 4.855467 2.082133 8.4864 4.8128 10.901333 8.187733 2.410667 3.3792 4.100267 7.3856 5.0688 12.032 0.6016 3.016533 0.904533 8.290133 0.904533 15.829334v59.072h-16.2816v-58.436267c0-6.634667-0.631467-11.592533-1.898666-14.877867-1.262933-3.2896-3.511467-5.9136-6.737067-7.872-3.2256-1.9584-7.010133-2.939733-11.3536-2.939733-6.933333 0-12.919467 2.205867-17.954133 6.6048-5.034667 4.4032-7.552 12.753067-7.552 25.058133v52.4672H423.978667zM562.564267 806.9504l2.3552 14.382933c-4.586667 0.964267-8.686933 1.4464-12.305067 1.4464-5.9136 0-10.491733-0.938667-13.751467-2.8032-3.259733-1.8688-5.550933-4.3264-6.8736-7.3728-1.3312-3.0464-1.992533-9.454933-1.992533-19.2256v-55.2704h-11.938133v-12.667733h11.938133v-23.786667l16.196267-9.770666v33.557333h16.3712v12.667733h-16.3712v56.174934c0 4.6464 0.2816 7.6288 0.8576 8.955733 0.571733 1.3312 1.506133 2.385067 2.8032 3.165867 1.297067 0.789333 3.1488 1.1776 5.563733 1.1776 1.809067 0 4.189867-0.209067 7.146667-0.631467zM578.577067 707.626667v-18.730667h16.2816v18.730667h-16.2816z m0 113.885866v-96.072533h16.2816v96.072533h-16.2816zM619.643733 821.512533v-96.072533h14.562134v13.4784a34.180267 34.180267 0 0 1 12.032-11.349333c5.0048-2.8672 10.705067-4.3008 17.096533-4.3008 7.1168 0 12.949333 1.480533 17.506133 4.433066 4.552533 2.9568 7.761067 7.086933 9.634134 12.394667 7.598933-11.221333 17.489067-16.827733 29.6704-16.827733 9.527467 0 16.8576 2.641067 21.981866 7.914666 5.124267 5.277867 7.688533 13.405867 7.688534 24.379734v65.9456h-16.192v-60.5184c0-6.510933-0.529067-11.204267-1.582934-14.0672-1.053867-2.8672-2.9696-5.1712-5.742933-6.920534-2.773333-1.749333-6.033067-2.624-9.770667-2.624-6.754133 0-12.360533 2.248533-16.823466 6.741334-4.4672 4.4928-6.6944 11.682133-6.6944 21.576533v55.812267h-16.2816v-62.417067c0-7.236267-1.326933-12.667733-3.9808-16.2816-2.653867-3.6224-6.997333-5.4272-13.026134-5.4272a23.650133 23.650133 0 0 0-12.7104 3.6224c-3.886933 2.410667-6.7072 5.9392-8.456533 10.581333s-2.619733 11.336533-2.619733 20.0832v49.8432h-16.290134zM839.7312 790.574933l16.827733 2.077867c-2.658133 9.834667-7.569067 17.4592-14.7456 22.8864-7.1808 5.4272-16.3456 8.1408-27.498666 8.1408-14.0544 0-25.194667-4.3264-33.425067-12.9792-8.234667-8.6528-12.352-20.791467-12.352-36.411733 0-16.162133 4.164267-28.706133 12.484267-37.627734 8.324267-8.925867 19.114667-13.393067 32.388266-13.393066 12.846933 0 23.338667 4.373333 31.479467 13.115733 8.1408 8.746667 12.2112 21.051733 12.2112 36.906667 0 0.968533-0.034133 2.410667-0.0896 4.343466H785.365333c0.605867 10.555733 3.588267 18.6368 8.96 24.247467 5.367467 5.6064 12.0576 8.413867 20.078934 8.413867 5.969067 0 11.067733-1.565867 15.291733-4.706134 4.2112-3.131733 7.560533-8.1408 10.0352-15.0144z m-53.461333-26.325333h53.640533c-0.725333-8.081067-2.773333-14.139733-6.148267-18.184533-5.188267-6.272-11.912533-9.403733-20.177066-9.403734-7.479467 0-13.768533 2.500267-18.862934 7.509334-5.0944 5.0048-7.9104 11.6992-8.452266 20.078933z" fill="#333333" p-id="2688"></path><path d="M149.3376 610.133333H870.4v29.866667H149.3376z" fill="#333333" p-id="2689"></path></svg>